<svg id="svg" version="1.1" xmlns="http://www.w3.org/2000/svg" xmlns:xlink="http://www.w3.org/1999/xlink" width="400" height="400" viewBox="0, 0, 400,400"><g id="svgg"><path id="path0" d="M190.400 18.787 C 190.400 19.560,191.571 20.354,192.800 20.413 C 195.408 20.539,195.597 20.467,195.507 19.382 C 195.426 18.411,190.400 17.825,190.400 18.787 M189.470 21.970 C 189.069 22.114,188.754 22.359,188.770 22.516 C 188.863 23.403,188.723 23.600,188.000 23.600 C 187.523 23.600,187.181 23.883,187.152 24.300 C 186.977 26.887,187.006 27.001,187.876 27.125 C 188.646 27.234,188.767 27.041,188.876 25.525 C 188.979 24.086,189.149 23.779,189.900 23.672 C 190.848 23.537,190.910 23.395,190.472 22.355 C 190.295 21.935,189.945 21.801,189.470 21.970 M194.000 25.365 C 194.000 27.580,194.095 27.915,194.700 27.825 C 196.045 27.625,195.663 22.834,194.300 22.806 C 194.135 22.803,194.000 23.954,194.000 25.365 M185.881 27.866 C 186.052 28.313,185.983 28.436,185.668 28.242 C 185.351 28.046,185.200 28.333,185.200 29.130 C 185.200 29.970,184.971 30.366,184.400 30.516 C 183.859 30.657,183.600 31.062,183.600 31.763 C 183.600 32.533,183.806 32.800,184.400 32.800 C 185.022 32.800,185.200 32.533,185.200 31.600 C 185.200 30.587,185.356 30.400,186.200 30.400 C 187.100 30.400,187.200 30.240,187.200 28.800 C 187.200 27.475,187.065 27.200,186.413 27.200 C 185.842 27.200,185.696 27.384,185.881 27.866 M194.700 31.476 C 193.748 31.724,193.809 32.800,194.775 32.800 C 195.304 32.800,195.531 32.546,195.490 32.000 C 195.457 31.560,195.423 31.221,195.415 31.246 C 195.407 31.272,195.085 31.375,194.700 31.476 M182.065 34.636 C 181.771 34.969,181.622 35.481,181.735 35.775 C 181.880 36.151,181.694 36.245,181.108 36.092 C 180.541 35.944,180.366 36.022,180.561 36.337 C 180.718 36.592,180.684 36.800,180.484 36.800 C 180.285 36.800,180.106 37.340,180.088 38.000 C 180.059 39.014,180.204 39.200,181.027 39.200 C 181.837 39.200,182.000 39.003,182.000 38.027 C 182.000 37.205,182.240 36.778,182.800 36.600 C 183.360 36.422,183.600 35.995,183.600 35.173 C 183.600 33.894,182.929 33.659,182.065 34.636 M178.750 39.367 C 178.722 39.495,178.655 39.780,178.600 40.000 C 178.545 40.220,178.478 40.927,178.450 41.572 C 178.412 42.464,178.185 42.775,177.500 42.872 C 176.628 42.996,176.556 43.171,176.443 45.456 C 176.415 46.004,176.154 46.291,175.715 46.256 C 175.002 46.198,174.581 47.251,174.942 48.192 C 175.296 49.116,176.800 48.437,176.800 47.353 C 176.800 46.667,177.024 46.400,177.600 46.400 C 178.281 46.400,178.400 46.133,178.400 44.600 C 178.400 42.985,178.495 42.800,179.327 42.800 C 180.184 42.800,180.237 42.675,180.027 41.133 C 179.840 39.762,178.934 38.508,178.750 39.367 M203.119 41.767 C 203.048 42.267,202.654 42.649,202.134 42.723 C 200.935 42.894,200.809 43.439,200.911 48.019 C 200.997 51.910,201.283 52.769,202.500 52.794 C 202.665 52.797,202.800 50.550,202.800 47.800 L 202.800 42.800 204.133 42.800 C 205.703 42.800,205.978 42.601,205.727 41.644 C 205.446 40.569,203.276 40.671,203.119 41.767 M206.000 43.584 C 206.000 44.033,206.260 44.400,206.577 44.400 C 206.895 44.400,207.390 44.731,207.677 45.137 C 208.825 46.754,209.713 45.642,209.242 43.178 C 209.099 42.430,206.000 42.818,206.000 43.584 M173.200 50.600 C 173.200 51.400,173.400 51.600,174.200 51.600 C 175.000 51.600,175.200 51.400,175.200 50.600 C 175.200 49.800,175.000 49.600,174.200 49.600 C 173.400 49.600,173.200 49.800,173.200 50.600 M213.600 50.575 C 213.600 51.484,213.762 51.600,215.028 51.600 C 216.280 51.600,216.440 51.489,216.328 50.700 C 216.124 49.263,213.600 49.147,213.600 50.575 M171.467 53.467 C 170.786 54.147,171.231 55.200,172.200 55.200 C 173.000 55.200,173.200 55.000,173.200 54.200 C 173.200 53.231,172.147 52.786,171.467 53.467 M201.900 53.646 C 201.004 54.150,200.942 56.888,201.810 57.608 C 202.694 58.342,202.857 57.958,202.721 55.471 C 202.613 53.490,202.525 53.294,201.900 53.646 M216.400 217.304 L 216.400 381.464 218.400 381.509 L 220.400 381.555 220.400 219.165 C 220.400 75.187,220.468 56.749,221.000 56.545 C 221.828 56.227,221.751 55.709,220.800 55.200 C 219.960 54.751,218.189 55.336,218.562 55.939 C 218.664 56.104,218.570 56.500,218.354 56.819 C 218.077 57.228,217.996 56.807,218.080 55.400 C 218.189 53.588,218.116 53.388,217.300 53.272 L 216.400 53.144 216.400 217.304 M170.000 56.767 C 170.000 56.969,169.891 57.419,169.757 57.767 C 169.574 58.245,169.771 58.400,170.557 58.400 C 171.746 58.400,172.058 57.061,170.967 56.643 C 170.123 56.319,170.000 56.335,170.000 56.767 M223.200 57.403 C 223.200 58.207,223.399 58.400,224.228 58.400 C 225.585 58.400,225.471 56.747,224.100 56.540 C 223.371 56.431,223.200 56.595,223.200 57.403 M168.464 60.496 C 168.209 60.751,168.000 61.173,168.000 61.433 C 168.000 61.694,167.640 62.001,167.200 62.116 C 166.760 62.231,166.400 62.591,166.400 62.916 C 166.400 63.241,166.760 63.601,167.200 63.716 C 167.836 63.882,168.000 63.728,168.000 62.963 C 168.000 62.267,168.222 62.000,168.800 62.000 C 169.325 62.000,169.600 61.733,169.600 61.224 C 169.600 60.238,169.065 59.895,168.464 60.496 M210.300 60.553 C 209.915 60.940,209.600 61.410,209.600 61.596 C 209.600 62.281,210.096 63.200,210.466 63.200 C 210.676 63.200,210.745 63.035,210.621 62.834 C 210.497 62.633,210.592 62.403,210.833 62.322 C 211.073 62.242,211.209 61.653,211.135 61.013 C 211.006 59.902,210.968 59.881,210.300 60.553 M200.967 62.988 C 200.808 63.622,200.939 64.196,201.331 64.588 C 202.341 65.598,202.800 65.290,202.800 63.600 C 202.800 61.686,201.410 61.222,200.967 62.988 M225.074 112.700 C 225.000 140.585,224.812 163.940,224.658 164.600 C 224.503 165.260,224.556 166.070,224.775 166.400 C 225.385 167.321,227.562 164.609,227.584 162.900 C 227.595 162.018,227.793 161.600,228.200 161.600 C 228.730 161.600,228.800 155.889,228.800 112.600 C 228.800 61.975,228.818 62.554,227.314 64.400 C 226.900 64.909,226.824 64.845,226.813 63.980 C 226.800 62.986,226.159 62.000,225.525 62.000 C 225.351 62.000,225.148 84.815,225.074 112.700 M232.000 64.800 C 232.000 65.873,232.131 66.037,232.900 65.928 C 233.559 65.834,233.800 65.532,233.800 64.800 C 233.800 64.068,233.559 63.766,232.900 63.672 C 232.131 63.563,232.000 63.727,232.000 64.800 M164.860 69.327 C 163.952 70.422,164.240 199.200,165.152 199.200 C 166.408 199.200,166.390 200.073,166.397 137.990 C 166.406 70.530,166.339 67.546,164.860 69.327 M235.789 69.636 C 235.426 70.778,235.675 70.912,238.060 70.858 C 241.707 70.776,241.847 69.063,238.220 68.906 C 236.336 68.824,236.016 68.921,235.789 69.636 M240.800 73.566 C 240.800 74.901,240.937 75.133,241.822 75.302 C 243.234 75.572,243.109 72.880,241.685 72.353 C 240.868 72.051,240.800 72.145,240.800 73.566 M242.509 122.000 C 242.509 122.990,242.587 123.395,242.682 122.900 C 242.778 122.405,242.778 121.595,242.682 121.100 C 242.587 120.605,242.509 121.010,242.509 122.000 M244.400 139.244 C 244.400 139.784,244.114 140.000,243.400 140.000 C 242.850 140.000,242.430 140.135,242.467 140.300 C 242.504 140.465,242.397 141.263,242.228 142.074 C 241.859 143.845,242.206 144.659,243.036 143.970 C 243.346 143.713,243.600 143.164,243.600 142.751 C 243.600 142.338,243.857 142.000,244.172 142.000 C 244.487 142.000,244.802 141.595,244.872 141.100 C 244.962 140.467,245.237 140.229,245.800 140.298 C 249.827 140.793,249.600 140.833,249.600 139.617 C 249.600 138.495,249.586 138.489,247.000 138.489 C 244.718 138.489,244.400 138.581,244.400 139.244 M247.978 143.240 C 247.158 144.773,247.789 147.120,248.906 146.691 C 249.723 146.378,249.740 142.533,248.925 142.533 C 248.613 142.533,248.187 142.851,247.978 143.240 M247.868 149.567 C 247.570 152.972,247.762 221.094,248.070 221.403 C 248.497 221.831,250.042 221.191,249.744 220.709 C 249.583 220.449,249.663 220.392,249.945 220.566 C 250.202 220.725,250.309 221.023,250.183 221.228 C 250.056 221.432,250.278 221.615,250.676 221.634 C 251.110 221.655,250.946 221.805,250.266 222.009 C 249.643 222.196,248.900 222.260,248.615 222.150 C 247.706 221.802,247.381 224.850,248.259 225.493 C 249.326 226.273,250.183 225.943,250.327 224.697 C 250.399 224.070,250.699 223.600,251.027 223.600 C 251.342 223.600,251.600 223.240,251.600 222.800 C 251.600 222.267,251.867 222.000,252.400 222.000 C 252.945 222.000,253.200 221.733,253.200 221.163 C 253.200 220.662,253.521 220.241,254.000 220.116 C 254.443 220.000,254.800 219.570,254.800 219.153 C 254.800 218.617,255.087 218.400,255.798 218.400 L 256.795 218.400 256.898 187.500 L 257.000 156.600 257.964 156.464 C 258.542 156.382,259.070 156.582,259.284 156.964 C 259.480 157.314,260.081 157.600,260.620 157.600 L 261.600 157.600 261.600 184.600 L 261.600 211.600 262.600 211.600 C 263.400 211.600,263.600 211.400,263.600 210.600 C 263.600 209.877,263.815 209.600,264.376 209.600 C 265.610 209.600,265.588 210.037,265.606 184.993 C 265.624 160.248,265.637 160.547,264.613 160.940 C 263.564 161.342,263.450 161.246,263.378 159.901 C 263.261 157.693,263.222 157.600,262.423 157.600 C 261.795 157.600,261.622 157.274,261.523 155.900 L 261.400 154.200 259.000 154.200 C 256.783 154.200,256.602 154.267,256.630 155.083 C 256.652 155.744,256.452 155.945,255.830 155.883 L 255.000 155.800 254.898 187.100 C 254.797 217.688,254.778 218.400,254.025 218.400 C 253.545 218.400,253.190 218.739,253.082 219.300 L 252.909 220.200 252.854 219.300 C 252.809 218.548,252.569 218.400,251.400 218.400 C 250.570 218.400,250.041 218.583,250.100 218.850 C 250.155 219.097,249.971 219.354,249.690 219.420 C 249.410 219.486,249.376 219.445,249.614 219.329 C 249.893 219.193,249.790 218.821,249.324 218.290 C 248.926 217.835,248.824 217.593,249.098 217.753 C 249.612 218.054,249.856 150.979,249.350 148.449 C 248.955 146.474,248.081 147.132,247.868 149.567 M233.876 150.900 C 233.763 151.835,233.561 153.050,233.426 153.600 C 233.104 154.915,233.812 156.086,234.394 155.200 C 234.611 154.870,234.791 154.105,234.794 153.500 C 234.797 152.895,234.980 152.400,235.200 152.400 C 235.722 152.400,235.713 150.959,235.186 149.974 C 234.532 148.753,234.097 149.060,233.876 150.900 M218.294 159.500 C 218.212 160.545,218.144 159.690,218.144 157.600 C 218.144 155.510,218.212 154.655,218.294 155.700 C 218.376 156.745,218.376 158.455,218.294 159.500 M268.400 161.748 C 268.400 162.477,268.642 162.779,269.300 162.872 L 270.200 163.000 270.400 183.972 C 270.590 203.945,270.633 204.910,271.300 204.243 C 271.685 203.858,272.000 203.376,272.000 203.171 C 272.000 202.967,272.180 202.800,272.400 202.800 C 272.620 202.800,272.800 203.083,272.800 203.429 C 272.800 203.774,273.070 204.327,273.400 204.657 C 273.933 205.190,274.000 204.076,274.000 194.629 C 274.000 185.448,273.918 184.000,273.400 184.000 C 273.070 184.000,272.800 184.191,272.800 184.424 C 272.800 184.657,272.993 184.728,273.230 184.582 C 273.467 184.435,273.431 184.682,273.149 185.132 C 272.320 186.460,272.000 185.738,272.000 182.543 C 272.000 180.311,272.129 179.577,272.500 179.704 C 272.797 179.805,273.000 180.578,273.000 181.604 C 273.000 182.556,273.208 183.402,273.462 183.487 C 274.249 183.750,274.208 171.765,273.421 171.463 C 273.085 171.334,272.852 171.357,272.905 171.514 C 272.957 171.671,272.820 171.890,272.600 172.000 C 272.028 172.286,271.855 169.657,272.402 168.998 C 272.653 168.695,273.115 168.546,273.429 168.667 C 273.845 168.826,274.000 168.561,274.000 167.689 C 274.000 166.330,272.583 165.556,272.267 166.743 C 272.171 167.104,272.072 166.106,272.046 164.524 C 271.996 161.381,271.955 161.316,269.847 160.981 C 268.510 160.768,268.400 160.826,268.400 161.748 M263.492 167.712 C 263.408 168.640,263.341 167.780,263.342 165.800 C 263.343 163.820,263.412 163.060,263.495 164.112 C 263.577 165.164,263.576 166.784,263.492 167.712 M274.500 164.847 C 273.657 165.712,273.932 166.000,275.600 166.000 C 277.040 166.000,277.200 166.100,277.200 167.000 C 277.200 167.813,277.397 168.000,278.250 168.000 C 279.318 168.000,279.444 166.084,278.441 165.081 C 277.825 164.465,275.034 164.300,274.500 164.847 M282.959 168.467 C 282.845 168.650,282.855 168.965,282.980 169.167 C 283.105 169.370,282.703 169.646,282.088 169.781 C 279.622 170.322,280.561 171.600,283.425 171.600 L 286.000 171.600 286.047 189.700 C 286.094 207.310,286.073 208.846,285.788 209.141 C 285.584 209.352,283.966 209.320,282.517 209.078 C 281.210 208.859,280.380 209.797,280.998 210.796 C 281.575 211.730,287.598 211.279,287.625 210.300 L 287.651 209.400 288.012 210.300 C 288.211 210.795,288.650 211.200,288.987 211.200 C 289.702 211.200,289.670 212.190,289.603 192.068 C 289.549 176.131,289.420 176.800,292.549 176.800 L 294.600 176.800 294.495 194.671 C 294.438 204.500,294.295 212.639,294.177 212.756 C 294.059 212.874,292.981 212.929,291.782 212.879 C 289.723 212.793,289.600 212.842,289.600 213.742 C 289.600 214.706,293.445 215.214,295.707 214.549 C 296.730 214.249,296.770 176.800,295.748 176.800 C 295.405 176.800,295.030 176.438,294.915 175.996 C 294.669 175.054,293.925 174.841,290.400 174.702 C 288.430 174.625,287.787 174.455,287.746 174.000 C 287.717 173.670,287.672 173.016,287.646 172.547 C 287.620 172.054,287.262 171.605,286.800 171.484 C 286.347 171.366,285.978 170.912,285.950 170.437 C 285.923 169.977,285.855 169.420,285.800 169.200 C 285.745 168.980,285.678 168.650,285.650 168.467 C 285.623 168.283,285.052 168.133,284.382 168.133 C 283.713 168.133,283.072 168.283,282.959 168.467 M263.483 171.695 C 263.387 172.193,263.305 171.880,263.301 171.000 C 263.296 170.120,263.375 169.713,263.475 170.095 C 263.575 170.478,263.579 171.198,263.483 171.695 M218.298 180.682 C 218.222 182.397,218.161 181.100,218.160 177.800 C 218.159 174.500,218.221 173.097,218.297 174.682 C 218.372 176.267,218.373 178.967,218.298 180.682 M272.762 175.142 C 272.171 175.345,271.871 174.933,272.210 174.384 C 272.425 174.036,272.587 174.055,272.837 174.457 C 273.035 174.776,273.004 175.058,272.762 175.142 M263.496 188.700 C 263.416 189.965,263.351 188.930,263.351 186.400 C 263.351 183.870,263.416 182.835,263.496 184.100 C 263.575 185.365,263.575 187.435,263.496 188.700 M201.901 189.300 C 201.355 189.718,201.203 191.084,200.969 197.654 C 200.662 206.290,200.799 207.600,202.008 207.600 C 202.775 207.600,202.800 207.303,202.800 198.200 C 202.800 193.030,202.744 188.800,202.676 188.800 C 202.609 188.800,202.259 189.025,201.901 189.300 M263.494 198.700 C 263.412 199.745,263.344 198.890,263.344 196.800 C 263.344 194.710,263.412 193.855,263.494 194.900 C 263.576 195.945,263.576 197.655,263.494 198.700 M288.000 198.600 C 288.000 201.130,287.865 203.200,287.700 203.200 C 287.535 203.200,287.400 201.130,287.400 198.600 C 287.400 196.070,287.535 194.000,287.700 194.000 C 287.865 194.000,288.000 196.070,288.000 198.600 M183.264 199.776 C 183.426 204.150,183.573 204.650,184.583 204.262 C 185.063 204.077,185.200 203.359,185.200 201.013 L 185.200 198.000 186.000 198.800 C 186.440 199.240,186.800 199.777,186.800 199.992 C 186.800 200.208,187.250 200.498,187.800 200.636 C 188.496 200.810,188.815 201.178,188.850 201.843 C 188.878 202.370,188.923 203.018,188.950 203.284 C 188.978 203.550,189.602 203.890,190.337 204.041 C 191.999 204.381,192.305 204.690,192.469 206.200 C 192.582 207.231,192.769 207.403,193.800 207.425 C 196.223 207.475,196.509 204.524,194.100 204.324 C 192.895 204.224,192.575 204.023,192.472 203.300 C 192.390 202.722,192.068 202.400,191.572 202.400 C 191.067 202.400,190.800 202.124,190.800 201.600 C 190.800 201.076,190.533 200.800,190.028 200.800 C 189.532 200.800,189.210 200.478,189.128 199.900 C 189.046 199.322,188.678 198.954,188.100 198.872 C 187.522 198.790,187.200 198.468,187.200 197.972 C 187.200 197.467,186.924 197.200,186.400 197.200 C 185.867 197.200,185.600 196.933,185.600 196.400 C 185.600 195.771,185.333 195.600,184.355 195.600 L 183.109 195.600 183.264 199.776 M159.615 199.782 C 158.877 200.671,159.478 201.200,161.224 201.200 C 162.638 201.200,162.800 201.098,162.800 200.200 C 162.800 199.028,160.492 198.725,159.615 199.782 M157.867 201.067 C 157.270 201.663,157.620 202.800,158.400 202.800 C 158.987 202.800,159.200 202.533,159.200 201.800 C 159.200 200.859,158.474 200.459,157.867 201.067 M152.232 203.816 C 152.091 204.375,151.838 204.747,151.668 204.642 C 151.499 204.537,151.143 204.800,150.877 205.226 C 150.449 205.910,150.504 206.000,151.350 206.000 C 151.983 206.000,152.380 205.718,152.525 205.165 C 152.707 204.470,152.998 204.353,154.272 204.465 C 155.601 204.582,155.817 204.483,155.928 203.700 C 156.135 202.241,152.599 202.353,152.232 203.816 M145.364 206.662 C 145.274 206.958,145.120 207.460,145.021 207.777 C 144.904 208.157,144.486 208.290,143.801 208.166 C 142.519 207.933,141.963 208.239,142.260 209.013 C 142.631 209.979,145.200 209.793,145.200 208.800 C 145.200 208.119,145.467 208.000,147.000 208.000 C 148.622 208.000,148.800 207.907,148.800 207.062 C 148.800 205.969,145.685 205.606,145.364 206.662 M274.000 206.800 C 274.000 207.355,274.276 207.608,274.900 207.628 C 275.395 207.643,276.332 207.724,276.981 207.809 C 278.253 207.975,279.200 207.438,279.200 206.551 C 279.200 206.140,278.542 206.000,276.600 206.000 C 274.267 206.000,274.000 206.082,274.000 206.800 M170.176 208.494 L 169.000 209.740 168.889 295.670 L 168.778 381.600 170.389 381.600 L 172.000 381.600 172.000 294.624 C 172.000 246.787,171.854 207.557,171.676 207.447 C 171.498 207.337,170.823 207.808,170.176 208.494 M287.455 207.800 C 287.329 208.130,287.410 208.400,287.636 208.400 C 287.862 208.400,287.922 208.603,287.768 208.851 C 287.578 209.160,287.373 209.095,287.123 208.648 C 286.922 208.288,286.867 207.815,287.002 207.597 C 287.382 206.981,287.713 207.129,287.455 207.800 M201.493 208.300 C 201.055 209.152,201.179 212.141,201.665 212.449 C 202.653 213.075,202.800 212.810,202.800 210.400 C 202.800 208.196,202.113 207.093,201.493 208.300 M138.298 210.621 C 138.115 211.580,138.192 211.635,139.551 211.521 C 140.704 211.425,141.026 211.216,141.128 210.500 C 141.333 209.057,138.575 209.175,138.298 210.621 M136.400 211.587 C 136.400 211.801,136.100 211.860,135.734 211.719 C 135.287 211.548,135.164 211.617,135.358 211.932 C 135.517 212.189,135.457 212.400,135.224 212.400 C 134.991 212.400,134.800 212.580,134.800 212.800 C 134.800 213.020,135.351 213.200,136.024 213.200 C 136.697 213.200,137.144 213.032,137.017 212.828 C 136.891 212.623,136.970 212.342,137.193 212.204 C 137.803 211.827,137.683 211.200,137.000 211.200 C 136.670 211.200,136.400 211.374,136.400 211.587 M162.101 212.900 C 161.196 214.040,160.739 216.314,161.251 217.133 C 161.635 217.748,161.642 218.397,161.281 220.062 C 160.939 221.640,160.813 243.079,160.798 301.900 L 160.778 381.600 162.189 381.600 L 163.600 381.600 163.600 297.880 C 163.600 231.738,163.704 214.056,164.097 213.663 C 164.492 213.268,164.472 213.090,163.997 212.789 C 163.178 212.272,162.571 212.307,162.101 212.900 M131.200 213.957 C 131.200 214.651,131.921 215.200,132.833 215.200 C 133.035 215.200,133.200 214.750,133.200 214.200 C 133.200 213.400,133.000 213.200,132.200 213.200 C 131.486 213.200,131.200 213.416,131.200 213.957 M183.867 213.467 C 183.522 213.811,183.520 215.787,183.864 216.131 C 184.432 216.699,185.252 214.845,184.804 214.007 C 184.328 213.119,184.256 213.077,183.867 213.467 M128.223 215.110 C 127.809 215.524,127.996 215.970,128.756 216.376 C 129.360 216.700,129.551 216.629,129.709 216.025 C 129.901 215.293,128.749 214.585,128.223 215.110 M203.075 215.458 C 202.425 216.108,202.795 218.000,203.572 218.000 C 204.052 218.000,204.393 218.321,204.472 218.848 C 204.626 219.869,207.240 220.292,208.700 219.533 C 210.171 218.768,209.746 218.445,207.100 218.319 L 204.600 218.200 204.400 216.832 C 204.205 215.499,203.630 214.903,203.075 215.458 M153.486 216.248 C 153.329 216.405,153.200 253.673,153.200 299.067 L 153.200 381.600 154.798 381.600 L 156.396 381.600 156.498 305.300 C 156.554 263.335,156.510 226.120,156.400 222.600 L 156.200 216.200 154.986 216.081 C 154.318 216.016,153.643 216.091,153.486 216.248 M124.545 217.000 C 124.161 217.999,124.675 218.758,125.576 218.522 C 126.719 218.223,126.729 216.400,125.587 216.400 C 125.141 216.400,124.671 216.670,124.545 217.000 M281.017 216.772 C 280.891 216.977,280.973 217.260,281.200 217.400 C 281.427 217.540,281.509 217.823,281.383 218.028 C 281.251 218.242,282.182 218.400,283.576 218.400 C 285.895 218.400,286.000 218.357,286.000 217.400 C 286.000 216.287,283.088 215.851,282.665 216.900 C 282.504 217.300,282.457 217.300,282.432 216.900 C 282.395 216.319,281.355 216.225,281.017 216.772 M145.694 220.618 L 144.400 221.978 144.400 301.789 L 144.400 381.600 146.200 381.600 L 148.000 381.600 148.000 300.849 C 148.000 212.722,148.153 218.034,145.694 220.618 M289.600 221.063 C 289.600 221.942,289.750 222.000,292.000 222.000 C 293.640 222.000,294.408 222.158,294.425 222.500 C 294.439 222.775,294.484 252.880,294.525 289.400 L 294.600 355.800 295.924 355.671 C 296.653 355.600,297.508 355.757,297.824 356.020 C 298.325 356.436,298.400 347.960,298.400 291.095 L 298.400 225.692 300.654 225.411 C 302.346 225.199,302.993 225.262,303.248 225.664 C 303.501 226.064,303.589 226.073,303.594 225.700 C 303.607 224.631,302.020 223.600,300.363 223.600 C 299.062 223.600,298.682 223.764,298.516 224.400 C 298.390 224.882,297.967 225.202,297.453 225.206 C 296.741 225.211,296.699 225.282,297.200 225.637 C 297.733 226.014,297.733 226.043,297.200 225.899 C 296.767 225.782,296.567 225.051,296.481 223.272 C 296.336 220.268,295.877 219.923,292.188 220.042 C 289.764 220.121,289.600 220.186,289.600 221.063 M137.100 224.193 L 136.000 225.162 136.000 303.381 L 136.000 381.600 137.600 381.600 L 139.200 381.600 139.200 304.174 C 139.200 251.831,139.333 226.498,139.612 225.978 C 140.599 224.133,138.701 222.784,137.100 224.193 M287.700 226.683 C 287.306 227.530,287.200 241.787,287.200 293.692 C 287.200 365.711,287.042 360.982,289.403 359.435 L 290.400 358.782 290.400 293.784 C 290.400 226.257,290.384 225.595,288.803 225.603 C 288.471 225.605,287.975 226.091,287.700 226.683 M305.900 227.076 C 304.413 227.464,304.992 229.733,306.500 229.426 C 310.234 228.667,310.400 228.671,310.400 229.510 C 310.400 229.970,310.738 230.395,311.200 230.516 C 311.813 230.676,312.000 231.062,312.000 232.163 C 312.000 233.687,312.393 233.972,313.184 233.019 C 313.774 232.308,313.359 230.800,312.573 230.800 C 312.228 230.800,312.000 230.401,312.000 229.800 C 312.000 229.250,311.865 228.821,311.700 228.847 C 310.828 228.985,310.400 228.722,310.400 228.050 C 310.400 227.040,308.013 226.524,305.900 227.076 M303.600 234.629 C 303.600 238.442,303.669 238.845,304.300 238.725 C 305.182 238.556,305.592 231.954,304.782 230.978 C 303.817 229.815,303.600 230.485,303.600 234.629 M314.193 230.811 C 313.499 231.934,314.356 232.548,316.479 232.449 C 318.655 232.349,318.693 232.366,318.935 233.574 C 319.112 234.458,319.406 234.800,319.990 234.800 C 320.978 234.800,321.185 231.618,320.248 230.840 C 319.693 230.379,314.476 230.354,314.193 230.811 M311.864 240.900 C 311.720 244.695,311.602 272.469,311.601 302.620 C 311.600 344.723,311.489 357.551,311.120 357.920 C 310.394 358.646,307.200 358.548,307.200 357.800 C 307.200 357.142,305.789 356.970,305.411 357.583 C 305.281 357.793,304.881 357.852,304.522 357.715 C 304.047 357.532,303.949 357.619,304.164 358.032 C 304.326 358.344,304.201 358.285,303.886 357.900 C 303.461 357.382,302.718 357.200,301.027 357.200 C 298.951 357.200,298.800 357.257,299.371 357.829 C 299.717 358.174,300.000 358.610,300.000 358.796 C 300.000 359.206,302.400 359.106,303.100 358.667 C 303.424 358.463,303.600 358.582,303.600 359.005 C 303.600 359.768,304.592 360.875,304.952 360.514 C 305.252 360.215,305.231 359.263,305.200 371.500 L 305.175 381.600 306.188 381.600 L 307.200 381.600 307.200 371.827 C 307.200 360.854,307.098 361.192,310.232 361.780 C 312.007 362.113,311.996 362.039,311.889 372.700 L 311.800 381.600 314.100 381.600 L 316.400 381.600 316.400 372.862 C 316.400 363.027,316.466 362.800,319.331 362.800 L 320.800 362.800 320.800 372.229 C 320.800 380.971,320.851 381.649,321.495 381.525 C 321.878 381.451,322.255 381.057,322.334 380.648 C 322.437 380.114,322.326 379.996,321.938 380.229 C 321.513 380.486,321.498 380.433,321.867 379.975 C 322.124 379.657,322.411 378.768,322.503 377.998 C 322.611 377.107,322.695 377.507,322.736 379.100 C 322.791 381.264,322.902 381.600,323.557 381.600 C 324.617 381.600,324.675 381.251,324.583 375.400 C 324.538 372.540,324.479 368.535,324.451 366.500 C 324.401 362.904,323.486 361.264,322.665 363.300 C 322.504 363.700,322.457 363.700,322.432 363.300 C 322.414 363.025,322.040 362.800,321.600 362.800 C 320.919 362.800,320.800 362.533,320.800 361.000 C 320.800 359.007,320.442 358.810,318.577 359.778 C 317.451 360.362,317.246 360.297,315.104 358.673 C 315.051 358.633,314.890 332.680,314.745 301.000 C 314.530 253.817,314.227 235.349,313.646 234.100 C 313.621 234.045,313.268 234.000,312.863 234.000 C 312.186 234.000,312.105 234.558,311.864 240.900 M110.578 314.435 C 110.042 315.302,111.276 315.797,113.984 315.798 C 116.912 315.800,117.438 315.598,117.062 314.617 C 116.776 313.873,111.026 313.711,110.578 314.435 M104.300 315.876 C 102.183 316.429,103.609 317.600,106.400 317.600 C 108.881 317.600,109.200 317.514,109.200 316.843 C 109.200 315.710,106.770 315.230,104.300 315.876 M94.800 318.600 C 94.800 319.635,98.424 320.065,101.100 319.348 C 103.701 318.651,102.078 317.600,98.400 317.600 C 94.827 317.600,94.800 317.607,94.800 318.600 M88.369 319.339 C 87.839 320.403,88.241 320.724,90.409 320.969 C 93.270 321.293,94.887 320.948,94.714 320.052 C 94.612 319.521,88.614 318.847,88.369 319.339 M79.700 321.057 C 79.425 321.172,79.200 321.612,79.200 322.033 C 79.200 322.709,78.896 322.800,76.625 322.800 C 74.296 322.800,74.055 322.877,74.110 323.600 C 74.163 324.309,74.457 324.400,76.685 324.400 C 78.933 324.400,79.200 324.315,79.200 323.600 C 79.200 322.859,79.467 322.800,82.828 322.800 C 86.361 322.800,86.452 322.777,86.328 321.900 C 86.201 321.008,81.303 320.385,79.700 321.057 M124.405 351.972 L 124.420 381.600 125.413 381.600 L 126.405 381.600 126.303 352.100 L 126.200 322.600 125.295 322.472 L 124.390 322.343 124.405 351.972 M103.297 324.463 C 102.910 324.850,102.800 331.243,102.800 353.280 L 102.800 381.600 104.403 381.600 L 106.005 381.600 105.903 352.900 L 105.800 324.200 104.797 324.083 C 104.246 324.018,103.571 324.189,103.297 324.463 M63.731 325.036 C 63.336 326.066,64.085 326.400,66.791 326.400 C 70.066 326.400,70.800 326.169,70.800 325.137 C 70.800 324.165,64.102 324.070,63.731 325.036 M95.600 325.879 C 93.994 326.449,94.000 326.346,94.000 354.476 L 94.000 381.600 95.800 381.600 L 97.600 381.600 97.553 354.900 C 97.499 324.869,97.522 325.198,95.600 325.879 M58.770 326.195 C 58.754 326.198,58.665 326.605,58.573 327.100 C 58.418 327.930,58.552 328.000,60.303 328.000 C 62.016 328.000,62.200 327.911,62.200 327.080 C 62.200 326.254,60.787 325.890,58.770 326.195 M87.473 327.860 C 87.323 328.010,87.200 329.239,87.200 330.590 C 87.200 332.131,86.981 333.337,86.613 333.824 C 86.112 334.485,86.024 338.070,86.013 358.100 L 86.000 381.600 87.408 381.600 L 88.817 381.600 88.708 355.020 C 88.604 329.541,88.482 326.851,87.473 327.860 M78.070 330.526 L 77.200 331.452 77.200 356.526 L 77.200 381.600 79.200 381.600 L 81.200 381.600 81.187 361.700 C 81.176 344.836,81.085 341.682,80.587 341.024 C 79.846 340.043,79.834 338.416,80.560 337.378 C 81.040 336.693,81.040 336.469,80.560 335.813 C 79.835 334.822,79.845 333.199,80.583 332.146 C 81.113 331.389,81.077 331.237,80.180 330.457 C 78.976 329.411,79.122 329.406,78.070 330.526 M69.843 332.233 C 69.709 332.581,69.600 343.831,69.600 357.233 L 69.600 381.600 71.200 381.600 L 72.800 381.600 72.800 357.246 L 72.800 332.892 71.814 332.246 C 70.577 331.436,70.150 331.433,69.843 332.233 M279.893 356.100 C 279.451 356.434,279.194 357.329,279.116 358.800 C 279.027 360.489,278.857 360.990,278.382 360.958 C 278.008 360.933,277.734 361.288,277.687 361.858 C 277.629 362.558,277.814 362.800,278.404 362.800 C 278.986 362.800,279.200 362.531,279.200 361.800 C 279.200 361.067,279.413 360.800,280.000 360.800 C 280.718 360.800,280.800 360.533,280.800 358.200 C 280.800 356.770,280.744 355.600,280.676 355.600 C 280.609 355.600,280.256 355.825,279.893 356.100 M327.600 363.733 C 327.600 364.970,327.946 365.257,328.853 364.772 C 329.766 364.283,329.826 363.372,328.967 363.043 C 327.882 362.626,327.600 362.769,327.600 363.733 M333.200 363.576 C 333.200 364.184,333.525 364.379,334.700 364.476 C 336.115 364.593,336.207 364.684,336.323 366.081 C 336.436 367.441,336.521 367.534,337.356 367.217 C 337.976 366.981,338.280 367.019,338.310 367.335 C 338.441 368.740,338.737 369.400,339.238 369.400 C 340.009 369.400,340.014 366.338,339.244 366.081 C 338.910 365.970,338.799 366.074,338.965 366.344 C 339.135 366.618,339.025 366.708,338.681 366.576 C 338.373 366.457,338.104 365.790,338.085 365.093 C 338.024 362.950,333.200 361.452,333.200 363.576 M340.214 363.507 C 340.096 363.814,340.000 364.591,340.000 365.233 L 340.000 366.400 342.600 366.400 L 345.200 366.400 345.200 374.029 C 345.200 381.080,345.253 381.648,345.900 381.524 C 347.231 381.269,347.125 366.000,345.792 366.000 C 345.467 366.000,345.200 365.680,345.200 365.289 C 345.200 363.173,340.929 361.646,340.214 363.507 M322.794 367.900 C 322.789 368.701,322.691 368.847,322.431 368.436 C 322.235 368.126,322.167 367.631,322.280 367.336 C 322.604 366.490,322.801 366.706,322.794 367.900 M322.683 372.895 C 322.587 373.393,322.505 373.080,322.501 372.200 C 322.496 371.320,322.575 370.913,322.675 371.295 C 322.775 371.678,322.779 372.398,322.683 372.895 " stroke="none" fill="#e8fbfc" fill-rule="evenodd"></path><path id="path1" d="M190.490 21.281 C 190.647 23.352,190.586 23.573,189.831 23.681 C 189.159 23.777,188.976 24.132,188.875 25.542 C 188.764 27.090,188.653 27.265,187.875 27.116 C 187.068 26.962,187.011 27.083,187.140 28.674 C 187.273 30.302,187.222 30.400,186.240 30.400 C 185.351 30.400,185.200 30.574,185.200 31.600 C 185.200 32.533,185.022 32.800,184.400 32.800 C 183.720 32.800,183.600 33.067,183.600 34.573 C 183.600 35.995,183.441 36.396,182.800 36.600 C 182.240 36.778,182.000 37.205,182.000 38.027 C 182.000 39.049,181.854 39.200,180.863 39.200 C 179.743 39.200,179.731 39.225,180.000 41.000 C 180.258 42.699,180.220 42.800,179.337 42.800 C 178.493 42.800,178.400 42.979,178.400 44.600 C 178.400 46.133,178.281 46.400,177.600 46.400 C 177.013 46.400,176.800 46.667,176.800 47.400 C 176.800 48.316,176.278 48.636,175.095 48.446 C 174.927 48.419,174.905 49.117,175.046 49.998 C 175.290 51.526,175.254 51.600,174.251 51.600 C 173.272 51.600,173.200 51.723,173.200 53.400 C 173.200 55.030,173.110 55.200,172.247 55.200 C 171.630 55.200,171.219 55.482,171.084 56.000 C 170.969 56.440,171.038 56.800,171.237 56.800 C 171.437 56.800,171.600 57.160,171.600 57.600 C 171.600 58.187,171.333 58.400,170.600 58.400 C 169.577 58.400,169.403 58.861,169.584 61.100 C 169.638 61.767,169.443 62.000,168.829 62.000 C 168.224 62.000,168.000 62.256,168.000 62.945 C 168.000 63.708,167.828 63.856,167.100 63.717 L 166.200 63.545 166.325 130.447 C 166.463 204.456,166.610 199.200,164.392 199.200 C 162.944 199.200,162.800 199.294,162.800 200.240 C 162.800 201.228,162.709 201.273,161.000 201.137 C 159.356 201.007,159.200 201.072,159.200 201.897 C 159.200 202.681,158.993 202.800,157.628 202.800 C 156.302 202.800,156.036 202.941,155.928 203.700 C 155.817 204.483,155.601 204.582,154.272 204.465 C 152.998 204.353,152.707 204.470,152.525 205.165 C 152.346 205.851,151.994 206.000,150.553 206.000 C 148.950 206.000,148.800 206.085,148.800 207.000 C 148.800 207.919,148.653 208.000,147.000 208.000 C 145.467 208.000,145.200 208.119,145.200 208.800 C 145.200 209.452,144.933 209.600,143.757 209.600 C 142.548 209.600,142.358 209.487,142.582 208.900 C 142.794 208.344,142.688 208.373,142.066 209.039 C 141.635 209.501,141.215 210.221,141.132 210.639 C 141.013 211.243,140.634 211.400,139.291 211.400 C 138.360 211.400,137.599 211.546,137.599 211.724 C 137.600 211.902,137.429 211.942,137.221 211.813 C 137.012 211.684,136.912 211.943,136.998 212.389 C 137.138 213.115,136.947 213.200,135.177 213.200 C 133.351 213.200,133.200 213.274,133.200 214.171 C 133.200 215.105,133.112 215.136,130.900 214.984 C 129.635 214.897,128.896 214.920,129.257 215.034 C 129.668 215.164,129.840 215.524,129.718 215.993 C 129.602 216.434,129.291 216.656,128.963 216.530 C 128.656 216.413,128.520 216.110,128.661 215.858 C 128.816 215.581,128.704 215.598,128.379 215.900 C 128.082 216.175,127.516 216.400,127.120 216.400 C 126.619 216.400,126.400 216.704,126.400 217.400 C 126.400 218.315,125.882 218.634,124.700 218.447 C 124.535 218.421,124.400 241.787,124.400 270.372 L 124.400 322.344 125.300 322.472 L 126.200 322.600 126.303 352.100 L 126.405 381.600 131.203 381.600 L 136.000 381.600 136.022 303.300 L 136.044 225.000 137.268 224.031 L 138.493 223.062 139.239 224.031 C 139.684 224.609,139.868 225.242,139.693 225.600 C 139.532 225.930,139.354 261.165,139.298 303.900 L 139.196 381.600 141.798 381.600 L 144.400 381.600 144.400 301.780 L 144.400 221.960 145.730 220.591 C 148.139 218.110,148.000 213.177,148.000 300.880 L 148.000 381.600 150.599 381.600 L 153.198 381.600 153.299 298.900 L 153.400 216.200 154.549 216.069 C 155.181 215.997,155.858 216.098,156.054 216.294 C 156.260 216.500,156.407 251.398,156.403 299.125 L 156.396 381.600 158.598 381.600 L 160.800 381.600 160.797 313.100 C 160.794 224.010,160.799 223.027,161.305 220.124 C 161.641 218.200,161.625 217.512,161.233 217.039 C 160.428 216.069,161.791 212.390,162.949 212.406 C 163.957 212.420,164.617 213.143,164.097 213.663 C 163.704 214.056,163.600 231.738,163.600 297.880 L 163.600 381.600 166.200 381.600 L 168.800 381.600 168.859 299.100 C 168.929 199.487,168.773 209.980,170.207 208.461 C 170.837 207.794,171.498 207.337,171.676 207.447 C 171.854 207.557,172.000 246.787,172.000 294.624 L 172.000 381.600 177.800 381.600 L 183.600 381.600 183.636 298.900 C 183.677 203.277,183.700 211.327,183.365 202.500 L 183.103 195.600 184.351 195.600 C 185.333 195.600,185.600 195.771,185.600 196.400 C 185.600 196.933,185.867 197.200,186.400 197.200 C 186.924 197.200,187.200 197.467,187.200 197.972 C 187.200 198.468,187.522 198.790,188.100 198.872 C 188.678 198.954,189.046 199.322,189.128 199.900 C 189.210 200.478,189.532 200.800,190.028 200.800 C 190.533 200.800,190.800 201.076,190.800 201.600 C 190.800 202.124,191.067 202.400,191.572 202.400 C 192.068 202.400,192.390 202.722,192.472 203.300 C 192.575 204.023,192.895 204.224,194.100 204.324 L 195.600 204.448 195.600 118.624 C 195.600 33.067,195.598 32.800,194.800 32.800 C 194.330 32.800,194.000 32.533,194.000 32.153 C 194.000 31.723,194.246 31.571,194.734 31.699 C 195.370 31.865,195.479 31.609,195.554 29.764 C 195.632 27.815,195.571 27.651,194.820 27.796 C 194.061 27.942,194.000 27.760,194.000 25.350 C 194.000 22.928,194.056 22.764,194.800 23.000 C 195.494 23.220,195.600 23.072,195.600 21.879 L 195.600 20.505 193.500 20.458 C 192.005 20.425,191.244 20.208,190.858 19.706 C 190.388 19.093,190.339 19.302,190.490 21.281 M204.300 42.724 L 202.800 42.848 202.800 129.180 C 202.800 211.155,202.835 215.508,203.500 215.456 C 204.048 215.412,204.200 215.714,204.200 216.843 L 204.200 218.285 206.900 218.364 L 209.600 218.442 209.647 139.721 C 209.673 96.425,209.679 60.883,209.660 60.739 C 209.642 60.596,209.607 56.935,209.583 52.604 C 209.545 45.828,209.463 44.832,208.989 45.465 C 208.462 46.170,208.413 46.163,207.797 45.300 C 207.444 44.805,206.907 44.400,206.604 44.400 C 206.301 44.400,205.996 43.995,205.927 43.500 C 205.817 42.722,205.596 42.617,204.300 42.724 M211.463 49.900 C 211.361 50.065,211.253 52.894,211.221 56.187 C 211.186 59.924,211.005 62.273,210.740 62.437 C 210.443 62.621,210.448 62.782,210.757 62.974 C 211.080 63.173,211.200 106.501,211.200 222.424 L 211.200 381.600 213.800 381.600 L 216.400 381.600 216.400 216.600 L 216.400 51.600 215.000 51.600 C 213.773 51.600,213.600 51.476,213.600 50.600 C 213.600 49.620,211.965 49.084,211.463 49.900 M218.006 55.900 C 218.010 56.856,218.133 57.209,218.346 56.874 C 218.654 56.387,218.500 54.400,218.153 54.400 C 218.069 54.400,218.003 55.075,218.006 55.900 M220.667 56.667 C 220.520 56.813,220.400 129.983,220.400 219.267 L 220.400 381.600 260.200 381.600 L 300.000 381.600 300.000 370.029 C 300.000 360.042,299.914 358.371,299.371 357.829 C 298.800 357.257,298.963 357.200,301.169 357.200 L 303.595 357.200 303.697 298.100 C 303.797 240.621,303.683 225.946,303.134 225.399 C 302.987 225.253,301.862 225.260,300.634 225.413 L 298.400 225.692 298.400 291.095 C 298.400 347.960,298.325 356.436,297.824 356.020 C 297.508 355.757,296.653 355.600,295.924 355.671 L 294.600 355.800 294.525 289.400 C 294.484 252.880,294.439 222.775,294.425 222.500 C 294.408 222.158,293.633 222.000,291.967 222.000 L 289.534 222.000 289.805 224.900 C 289.954 226.495,290.150 257.270,290.241 293.289 L 290.405 358.778 289.405 359.433 C 287.041 360.982,287.200 365.742,287.200 293.436 C 287.200 249.742,287.336 227.163,287.600 227.000 C 287.825 226.861,288.000 224.929,288.000 222.576 L 288.000 218.400 284.623 218.400 C 281.473 218.400,281.256 218.347,281.398 217.608 C 281.482 217.173,281.377 216.710,281.166 216.579 C 280.954 216.448,280.806 216.489,280.837 216.670 C 281.490 220.428,280.675 360.800,280.000 360.800 C 279.413 360.800,279.200 361.067,279.200 361.800 C 279.200 362.764,279.107 362.800,276.600 362.800 L 274.000 362.800 274.000 284.400 L 274.000 206.000 276.600 206.000 L 279.200 206.000 279.200 187.000 L 279.200 168.000 278.200 168.000 C 277.400 168.000,277.200 167.800,277.200 167.000 C 277.200 166.044,277.099 166.002,274.900 166.046 C 273.635 166.072,272.915 166.175,273.300 166.276 C 273.773 166.399,274.000 166.853,274.000 167.672 C 274.000 168.559,273.846 168.827,273.429 168.667 C 273.115 168.546,272.653 168.695,272.402 168.998 C 271.855 169.657,272.028 172.286,272.600 172.000 C 272.820 171.890,272.957 171.671,272.905 171.514 C 272.852 171.357,273.085 171.334,273.421 171.463 C 274.208 171.765,274.249 183.750,273.462 183.487 C 273.208 183.402,273.000 182.556,273.000 181.604 C 273.000 180.578,272.797 179.805,272.500 179.704 C 272.129 179.577,272.000 180.311,272.000 182.543 C 272.000 185.738,272.320 186.460,273.149 185.132 C 273.431 184.682,273.467 184.435,273.230 184.582 C 272.993 184.728,272.800 184.657,272.800 184.424 C 272.800 184.191,273.070 184.000,273.400 184.000 C 273.918 184.000,274.000 185.448,274.000 194.629 C 274.000 204.076,273.933 205.190,273.400 204.657 C 273.070 204.327,272.800 203.774,272.800 203.429 C 272.800 203.083,272.620 202.800,272.400 202.800 C 272.180 202.800,272.000 202.967,272.000 203.171 C 272.000 203.376,271.685 203.858,271.300 204.243 C 270.633 204.910,270.590 203.945,270.400 183.972 L 270.200 163.000 269.300 162.872 C 268.649 162.780,268.400 162.476,268.400 161.772 C 268.400 160.929,268.215 160.800,267.012 160.800 L 265.623 160.800 265.606 184.847 C 265.588 210.041,265.610 209.600,264.376 209.600 C 263.815 209.600,263.600 209.877,263.600 210.600 C 263.600 211.400,263.400 211.600,262.600 211.600 L 261.600 211.600 261.600 184.600 L 261.600 157.600 260.620 157.600 C 260.081 157.600,259.480 157.314,259.284 156.964 C 259.070 156.582,258.542 156.382,257.964 156.464 L 257.000 156.600 256.898 187.500 L 256.795 218.400 255.798 218.400 C 255.087 218.400,254.800 218.617,254.800 219.153 C 254.800 219.570,254.443 220.000,254.000 220.116 C 253.521 220.241,253.200 220.662,253.200 221.163 C 253.200 221.733,252.945 222.000,252.400 222.000 C 251.867 222.000,251.600 222.267,251.600 222.800 C 251.600 223.240,251.342 223.600,251.027 223.600 C 250.699 223.600,250.399 224.070,250.327 224.697 C 250.183 225.943,249.326 226.273,248.259 225.493 C 247.257 224.760,247.716 221.856,248.780 222.194 C 249.202 222.328,249.467 222.199,249.467 221.861 C 249.467 221.540,249.184 221.384,248.788 221.487 C 248.333 221.606,248.029 221.358,247.864 220.732 C 247.673 220.011,247.763 147.727,247.955 147.300 C 248.129 146.914,249.048 147.547,249.260 148.200 C 249.458 148.809,249.530 148.692,249.560 147.713 C 249.592 146.688,249.469 146.475,248.960 146.671 C 247.758 147.132,247.142 144.804,248.028 143.148 C 248.345 142.556,248.589 142.459,248.968 142.773 C 249.366 143.104,249.471 142.922,249.440 141.953 C 249.404 140.835,249.257 140.692,248.000 140.554 C 247.230 140.470,246.240 140.356,245.800 140.300 C 245.237 140.230,244.963 140.466,244.872 141.100 C 244.802 141.595,244.487 142.000,244.172 142.000 C 243.857 142.000,243.600 142.338,243.600 142.751 C 243.600 143.164,243.332 143.724,243.005 143.996 C 242.247 144.625,241.771 143.631,242.190 142.294 C 242.716 140.614,242.802 135.884,242.317 135.300 C 241.993 134.910,241.981 134.657,242.277 134.470 C 242.571 134.283,242.686 125.178,242.651 104.800 L 242.600 75.400 241.700 75.272 C 240.881 75.156,240.800 74.929,240.800 72.749 C 240.800 71.311,240.646 70.448,240.414 70.591 C 240.202 70.723,239.032 70.842,237.814 70.856 L 235.600 70.883 235.600 111.641 C 235.600 138.547,235.464 152.400,235.200 152.400 C 234.980 152.400,234.797 152.895,234.794 153.500 C 234.791 154.105,234.611 154.870,234.394 155.200 C 233.799 156.106,233.097 154.890,233.471 153.600 C 233.630 153.050,233.816 133.050,233.884 109.155 L 234.007 65.710 233.004 65.901 C 232.106 66.073,232.000 65.962,232.000 64.847 C 232.000 63.659,231.924 63.600,230.400 63.600 L 228.800 63.600 228.800 112.600 C 228.800 155.889,228.730 161.600,228.200 161.600 C 227.793 161.600,227.595 162.018,227.584 162.900 C 227.562 164.609,225.385 167.321,224.775 166.400 C 224.556 166.070,224.504 165.260,224.658 164.600 C 224.813 163.940,225.000 139.775,225.074 110.900 L 225.209 58.400 224.204 58.400 C 223.400 58.400,223.200 58.201,223.200 57.400 C 223.200 56.415,221.431 55.902,220.667 56.667 M218.144 157.600 C 218.144 159.690,218.212 160.545,218.294 159.500 C 218.376 158.455,218.376 156.745,218.294 155.700 C 218.212 154.655,218.144 155.510,218.144 157.600 M263.342 165.800 C 263.341 167.780,263.408 168.640,263.492 167.712 C 263.576 166.784,263.577 165.164,263.495 164.112 C 263.412 163.060,263.343 163.820,263.342 165.800 M263.301 171.000 C 263.305 171.880,263.387 172.193,263.483 171.695 C 263.579 171.198,263.575 170.478,263.475 170.095 C 263.375 169.713,263.296 170.120,263.301 171.000 M280.806 190.700 C 280.809 201.205,280.944 209.598,281.106 209.352 C 281.268 209.105,281.940 208.989,282.600 209.093 C 284.013 209.316,285.596 209.340,285.788 209.141 C 286.073 208.846,286.094 207.310,286.047 189.700 L 286.000 171.600 283.400 171.600 L 280.800 171.600 280.806 190.700 M218.160 177.800 C 218.161 181.100,218.222 182.397,218.298 180.682 C 218.373 178.967,218.372 176.267,218.297 174.682 C 218.221 173.097,218.159 174.500,218.160 177.800 M272.210 174.384 C 271.871 174.933,272.171 175.345,272.762 175.142 C 273.004 175.058,273.035 174.776,272.837 174.457 C 272.587 174.055,272.425 174.036,272.210 174.384 M290.042 177.350 C 289.714 177.744,289.597 182.820,289.625 195.350 L 289.665 212.800 291.132 212.863 C 292.751 212.933,294.085 212.848,294.271 212.663 C 294.337 212.597,294.438 204.500,294.495 194.671 L 294.600 176.800 292.549 176.800 C 291.298 176.800,290.320 177.014,290.042 177.350 M263.351 186.400 C 263.351 188.930,263.416 189.965,263.496 188.700 C 263.575 187.435,263.575 185.365,263.496 184.100 C 263.416 182.835,263.351 183.870,263.351 186.400 M263.344 196.800 C 263.344 198.890,263.412 199.745,263.494 198.700 C 263.576 197.655,263.576 195.945,263.494 194.900 C 263.412 193.855,263.344 194.710,263.344 196.800 M287.400 198.600 C 287.400 201.130,287.535 203.200,287.700 203.200 C 287.865 203.200,288.000 201.130,288.000 198.600 C 288.000 196.070,287.865 194.000,287.700 194.000 C 287.535 194.000,287.400 196.070,287.400 198.600 M287.002 207.597 C 286.867 207.815,286.922 208.288,287.123 208.648 C 287.373 209.095,287.578 209.160,287.768 208.851 C 287.922 208.603,287.862 208.400,287.636 208.400 C 287.410 208.400,287.329 208.130,287.455 207.800 C 287.713 207.129,287.382 206.981,287.002 207.597 M307.600 229.200 C 307.270 229.413,306.595 229.591,306.100 229.594 C 305.513 229.598,305.199 229.844,305.197 230.300 C 304.975 276.085,305.093 357.867,305.380 357.580 C 305.974 356.986,307.200 357.134,307.200 357.800 C 307.200 358.560,310.500 358.644,311.117 357.899 C 311.929 356.922,311.885 230.627,311.073 230.471 C 310.703 230.400,310.400 229.995,310.400 229.571 C 310.400 228.716,308.698 228.490,307.600 229.200 M313.921 233.765 C 313.854 234.444,313.952 236.890,314.137 239.200 C 314.323 241.510,314.595 269.320,314.742 301.000 C 314.888 332.680,315.051 358.633,315.104 358.673 C 317.246 360.297,317.451 360.362,318.577 359.778 C 319.190 359.460,319.941 359.200,320.246 359.200 C 320.716 359.200,320.800 349.742,320.800 297.000 C 320.800 234.811,320.800 234.800,319.990 234.800 C 319.407 234.800,319.112 234.458,318.936 233.581 C 318.554 231.669,314.109 231.832,313.921 233.765 M109.400 315.631 C 108.740 315.782,108.425 315.927,108.700 315.953 C 108.975 315.979,109.200 316.386,109.200 316.859 C 109.200 317.692,109.088 317.711,105.462 317.495 L 101.725 317.272 101.904 318.210 C 102.123 319.354,100.622 319.753,96.900 319.537 C 94.873 319.420,94.550 319.494,94.695 320.045 C 94.940 320.979,93.558 321.217,89.545 320.932 L 86.089 320.687 86.291 321.743 L 86.493 322.800 82.847 322.800 C 79.467 322.800,79.200 322.859,79.200 323.600 C 79.200 324.349,78.933 324.400,75.000 324.400 C 71.080 324.400,70.800 324.453,70.800 325.192 C 70.800 326.276,69.544 326.524,65.233 326.292 L 61.658 326.100 62.019 327.050 C 62.369 327.971,62.320 328.000,60.390 328.000 L 58.400 328.000 58.400 354.800 L 58.400 381.600 64.000 381.600 L 69.600 381.600 69.606 357.100 C 69.613 331.037,69.620 330.944,71.486 332.075 L 72.600 332.749 72.703 357.175 L 72.806 381.600 75.003 381.600 L 77.200 381.600 77.200 356.470 L 77.200 331.339 78.160 330.438 L 79.120 329.536 80.143 330.425 C 81.076 331.236,81.114 331.387,80.583 332.146 C 79.845 333.199,79.835 334.822,80.560 335.813 C 81.040 336.469,81.040 336.693,80.560 337.378 C 79.834 338.416,79.846 340.043,80.587 341.024 C 81.085 341.682,81.176 344.836,81.187 361.700 L 81.200 381.600 83.600 381.600 L 86.000 381.600 86.013 358.100 C 86.024 338.070,86.112 334.485,86.613 333.824 C 86.984 333.333,87.200 332.126,87.200 330.547 C 87.200 327.838,87.763 326.925,88.401 328.602 C 88.652 329.262,88.800 339.311,88.800 355.626 L 88.800 381.600 91.400 381.600 L 94.000 381.600 94.000 354.476 C 94.000 325.474,93.954 326.129,95.985 325.908 C 97.489 325.743,97.501 325.963,97.553 354.900 L 97.600 381.600 100.200 381.600 L 102.800 381.600 102.800 353.249 C 102.800 322.602,102.717 323.763,104.878 324.069 L 105.800 324.200 105.903 352.900 L 106.005 381.600 111.603 381.600 L 117.200 381.600 117.200 348.619 L 117.200 315.638 115.294 315.863 C 114.245 315.988,112.760 315.924,111.994 315.723 C 111.227 315.522,110.060 315.480,109.400 315.631 M307.700 361.845 C 307.320 362.014,307.200 364.405,307.200 371.833 L 307.200 381.600 309.368 381.600 C 311.413 381.600,311.549 381.537,311.758 380.500 C 312.084 378.884,311.953 362.971,311.609 362.414 C 311.288 361.895,308.501 361.489,307.700 361.845 M317.062 363.531 C 316.489 364.165,316.400 365.427,316.400 372.931 L 316.400 381.600 318.600 381.600 L 320.800 381.600 320.800 372.200 L 320.800 362.800 319.262 362.800 C 318.280 362.800,317.485 363.064,317.062 363.531 M324.500 372.200 L 324.600 381.599 327.100 381.600 L 329.600 381.600 329.600 372.986 C 329.600 364.698,329.572 364.387,328.853 364.772 C 327.946 365.257,327.600 364.970,327.600 363.733 C 327.600 362.911,327.410 362.800,326.000 362.800 L 324.401 362.800 324.500 372.200 M331.484 364.649 C 331.328 364.805,331.200 368.683,331.200 373.267 L 331.200 381.600 334.576 381.600 C 338.697 381.600,338.367 382.213,338.368 374.565 C 338.369 366.228,338.448 366.802,337.356 367.217 C 336.521 367.534,336.436 367.441,336.323 366.081 L 336.200 364.600 333.984 364.483 C 332.765 364.418,331.640 364.493,331.484 364.649 M339.874 368.000 C 339.915 368.990,339.960 372.455,339.974 375.700 L 340.000 381.600 342.600 381.600 L 345.200 381.600 345.200 374.033 L 345.200 366.466 342.500 366.333 L 339.800 366.200 339.874 368.000 " stroke="none" fill="#24d4b4" fill-rule="evenodd"></path></g></svg>